# xmcd CD database file
#
# Track frame offsets:
#	150
#	20460
#	85012
#	107440
#	141422
#	171959
#	179184
#	205175
#	236860
#	272033
#
# Disc length: 4030 seconds
#
# Revision: 5
# Processed by: cddbd v1.5.2PL0 Copyright (c) Steve Scherf et al.
# Submitted via: jetAudio 7
#
DISCID=8e0fbc0a
DTITLE=Woven Hand - Blush Music
DYEAR=2002
DGENRE=Alternative
TTITLE0=Cripplegate (Standing On Glass)
TTITLE1=Animalitos (Ain't No Sunshine)
TTITLE2=White Bird
TTITLE3=Snake Bite
TTITLE4=My Russia (Standing On Hands)
TTITLE5=The Way
TTITLE6=Aeolian Harp (Under The World)
TTITLE7=Your Russia (Without Hands)
TTITLE8=Another White Bird
TTITLE9=Story And Pictures
EXTD=YEAR: 2002
EXTT0=
EXTT1=
EXTT2=
EXTT3=
EXTT4=
EXTT5=
EXTT6=
EXTT7=
EXTT8=
EXTT9=
PLAYORDER=
